<svg width="427" height="108" viewBox="0 0 427 108" fill="none" xmlns="http://www.w3.org/2000/svg">
<path d="M75.3627 60.8079C89.3916 60.8079 103.237 60.8079 117.213 60.8079C117.213 65.5137 117.213 70.0093 117.213 74.6362C98.5432 74.6362 80.0303 74.6362 61.36 74.6362C61.36 49.7137 61.36 24.9226 61.36 0C79.9516 0 98.4907 0 117.187 0C117.187 4.33779 117.187 8.67558 117.187 13.3288C103.289 13.3288 89.3916 13.3288 75.3627 13.3288C75.3627 19.2177 75.3627 24.7911 75.3627 30.5748C88.7885 30.5748 102.136 30.5748 115.666 30.5748C115.666 35.0178 115.666 39.2767 115.666 43.8511C102.293 43.8511 88.8672 43.8511 75.3627 43.8511C75.3627 49.5559 75.3627 54.9979 75.3627 60.8079Z" fill="url(#paint0_linear_1564_18042)"/>
<path d="M187.909 84.3371C192.314 84.3371 196.483 84.3371 200.626 84.3371C203.117 94.3534 213.947 98.7964 222.837 93.5122C226.429 91.3827 228.16 88.1491 228.081 84.0216C228.002 79.789 225.878 76.6868 222.024 75.1883C219.611 74.2419 216.937 73.9527 214.367 73.5321C211.613 73.0851 208.755 73.1114 206.054 72.4279C195.906 69.8252 189.193 62.1224 188.302 51.6591C187.961 47.5316 188.04 43.1413 188.984 39.1189C191.475 28.5242 200.574 21.242 211.587 20.2693C217.749 19.7435 221.342 20.3482 226.901 22.9771C228.553 20.9002 230.231 18.7971 232.067 16.4836C235.292 18.9022 238.413 21.2683 241.69 23.7395C239.697 26.3159 237.783 28.7608 235.921 31.2058C244.653 41.4324 242.949 60.1769 230.756 66.6179C230.808 66.7493 230.861 66.9597 230.939 67.0122C245.886 73.9264 243.683 96.7721 230.179 103.897C219.611 109.47 208.86 109.417 198.502 103.423C191.475 99.3485 188.171 92.7761 187.909 84.3371ZM228.396 47.0058C228.343 39.8288 224.567 34.308 218.536 32.5991C208.834 29.865 200.495 37.0684 200.941 47.7682C201.308 56.2861 206.998 61.8332 215.153 61.6229C222.915 61.4125 228.448 55.3134 228.396 47.0058Z" fill="url(#paint1_linear_1564_18042)"/>
<path d="M312.543 84.3108C317.027 84.3108 321.118 84.3108 325.208 84.3108C326.808 95.221 338.503 97.2979 345.845 94.3271C350.329 92.5132 352.82 88.78 352.742 84.1531C352.663 79.7101 350.277 76.2925 345.635 74.7677C343.249 73.979 340.653 73.6898 338.11 73.5846C328.119 73.1114 319.833 69.5886 315.322 60.0981C309.842 48.5569 311.442 30.4434 326.677 23.0823C334.753 19.1914 343.039 18.9285 351.535 22.9508C353.187 20.9265 354.918 18.7971 356.78 16.5362C359.979 18.9548 363.047 21.2683 366.351 23.7658C364.358 26.3159 362.47 28.7871 360.582 31.2058C369.629 41.9845 367.19 60.5713 355.338 66.6179C355.469 66.8019 355.547 67.0122 355.731 67.1174C365.381 73.1903 368.475 82.8386 364.096 93.4333C361.369 99.9794 356.413 104.081 349.778 106.157C340.417 109.076 331.318 108.471 322.874 103.213C316.004 98.9804 312.858 92.5395 312.543 84.3108ZM339.368 61.6229C347.314 61.5966 353.109 55.5237 353.109 47.1899C353.135 38.3303 347.34 32.047 339.211 32.0733C331.239 32.0996 325.444 38.3565 325.497 46.8218C325.549 55.6814 331.134 61.6492 339.368 61.6229Z" fill="url(#paint2_linear_1564_18042)"/>
<path d="M291.172 28.9186C291.382 26.2896 291.539 24.2653 291.722 22.0307C295.813 22.0307 299.799 22.0307 303.994 22.0307C303.994 39.5133 303.994 56.9959 303.994 74.6362C300.035 74.6362 296.128 74.6362 291.958 74.6362C291.722 72.3753 291.486 70.1144 291.224 67.538C286.294 74.1893 279.739 76.6342 272.056 76.2925C264.582 75.977 257.948 73.5058 253.045 67.5906C247.407 60.7553 246.332 52.6844 247.092 44.1928C248.639 27.2623 265.133 16.431 281.312 21.6889C285.193 22.9245 288.418 25.1066 291.172 28.9186ZM259.967 48.2677C260.072 57.916 266.418 64.4359 275.622 64.3833C284.616 64.3307 291.041 57.548 290.988 48.1889C290.936 38.7772 284.459 32.1522 275.412 32.2574C266.208 32.3362 259.862 38.9086 259.967 48.2677Z" fill="url(#paint3_linear_1564_18042)"/>
<path d="M385.729 52.8947C386.49 58.8099 390.921 62.8848 397.293 63.8838C403.822 64.9091 409.277 63.6209 415.622 59.4671C418.245 62.1487 420.867 64.8565 423.987 68.0901C420.893 69.9041 418.035 72.0073 414.836 73.348C406.89 76.7131 398.63 77.0286 390.344 74.5574C379.252 71.2186 372.539 61.9383 372.067 49.5559C371.333 30.7326 385.152 18.1135 403.954 20.4007C418.507 22.1884 426.688 31.2846 426.977 46.0068C427.029 48.2152 426.977 50.4235 426.977 52.8947C413.079 52.8947 399.496 52.8947 385.729 52.8947ZM414.18 42.0371C413.708 38.0937 411.899 35.2018 408.542 33.6244C402.721 30.8903 396.847 31.0217 391.288 34.4131C388.482 36.1219 386.726 38.6983 385.86 42.0371C395.405 42.0371 404.635 42.0371 414.18 42.0371Z" fill="url(#paint4_linear_1564_18042)"/>
<path d="M179.308 74.6362C174.876 74.6362 170.733 74.6362 166.275 74.6362C166.275 73.1903 166.275 71.9021 166.275 70.6139C166.275 63.3317 166.275 56.0495 166.275 48.7672C166.275 47.6894 166.275 46.6115 166.144 45.5599C165.253 37.1998 160.454 32.6517 152.876 32.9935C145.743 33.3089 140.184 39.1452 140.053 46.7955C139.922 54.735 140.027 62.6744 140.027 70.6139C140.027 71.8495 140.027 73.0851 140.027 74.5574C135.779 74.5574 131.636 74.5574 127.257 74.5574C127.257 57.1273 127.257 39.5922 127.257 21.8993C130.98 21.8993 134.651 21.8993 138.611 21.8993C138.952 24.055 139.293 26.2633 139.66 28.7608C140.525 28.0247 141.128 27.4989 141.757 26.9469C148.523 21.1631 156.206 19.3754 164.597 22.3462C173.067 25.3432 177.498 32.0208 178.652 40.5912C179.439 46.4538 179.203 52.4741 179.308 58.4155C179.386 63.7786 179.308 69.1417 179.308 74.6362Z" fill="url(#paint5_linear_1564_18042)"/>
<path d="M48.38 63.9363C48.38 67.7221 48.38 71.4552 48.38 75.2409C48.2227 75.2409 48.0654 75.2409 47.9342 75.2409C39.2809 75.2409 30.6276 75.2672 21.9742 75.2409C20.0076 75.2409 18.0409 74.9517 16.1529 74.3733C14.868 73.979 13.6356 73.5321 12.4293 72.9274C10.4365 71.9284 8.60089 70.6665 6.94889 69.1154C5.79511 68.0112 4.74623 66.8282 3.85467 65.4874C2.77956 63.9101 1.94045 62.2012 1.28489 60.3873C0.367112 57.7846 0 55.1293 0 52.3689C0 42.4314 0 32.494 0 22.5828C0 22.3988 0 22.2147 0 22.0044C0.157333 22.0044 0.288445 21.9781 0.419556 21.9781C4.14311 21.9781 7.86667 21.9781 11.5902 21.9781C11.9573 21.9781 12.036 22.0833 12.036 22.425C12.036 31.679 12.036 40.9329 12.036 50.2132C12.036 51.6854 12.1671 53.1576 12.6391 54.5772C13.0849 55.9443 13.7142 57.2062 14.5533 58.363C15.2613 59.3357 16.0742 60.2032 16.992 60.9656C17.8836 61.6754 18.8538 62.2801 19.9027 62.7533C21.1351 63.3054 22.3938 63.6472 23.7049 63.8312C24.3867 63.9363 25.0947 63.9626 25.7765 63.9626C33.1187 63.9626 40.4347 63.9626 47.7769 63.9626C48.0129 63.9363 48.1702 63.9363 48.38 63.9363Z" fill="url(#paint6_linear_1564_18042)"/>
<path d="M37.9174 32.0733C37.9174 28.682 37.9174 25.3432 37.9174 21.9518C38.0747 21.9518 38.2058 21.9518 38.3369 21.9518C41.6671 21.9518 44.9974 21.9518 48.3276 21.9518C48.7209 21.9518 48.7996 22.0833 48.7996 22.425C48.7996 25.5009 48.7734 28.5505 48.7996 31.6264C48.7996 31.9945 48.6947 32.0996 48.3276 32.0996C45.0236 32.0733 41.6934 32.0996 38.3894 32.0996C38.232 32.0733 38.1009 32.0733 37.9174 32.0733Z" fill="url(#paint7_linear_1564_18042)"/>
<path d="M43.3454 44.0351C45.0236 44.0351 46.6756 44.0351 48.3538 44.0351C48.6947 44.0351 48.7734 44.1403 48.7734 44.482C48.7734 47.4002 48.7734 50.3183 48.7734 53.2365C48.7734 53.552 48.6947 53.6571 48.3538 53.6571C44.9974 53.6571 41.6409 53.6571 38.2582 53.6571C37.9436 53.6571 37.8649 53.5519 37.8649 53.2628C37.8649 50.3183 37.8649 47.4002 37.8649 44.482C37.8649 44.1666 37.9436 44.0614 38.2845 44.0614C39.9627 44.0351 41.6671 44.0351 43.3454 44.0351Z" fill="url(#paint8_linear_1564_18042)"/>
<defs>
<linearGradient id="paint0_linear_1564_18042" x1="17.8811" y1="4.07035" x2="71.3975" y2="210.799" gradientUnits="userSpaceOnUse">
<stop stop-color="#00A86B"/>
<stop offset="1" stop-color="#003C1B"/>
</linearGradient>
<linearGradient id="paint1_linear_1564_18042" x1="17.8811" y1="4.07035" x2="71.3975" y2="210.799" gradientUnits="userSpaceOnUse">
<stop stop-color="#00A86B"/>
<stop offset="1" stop-color="#003C1B"/>
</linearGradient>
<linearGradient id="paint2_linear_1564_18042" x1="17.8811" y1="4.07035" x2="71.3975" y2="210.799" gradientUnits="userSpaceOnUse">
<stop stop-color="#00A86B"/>
<stop offset="1" stop-color="#003C1B"/>
</linearGradient>
<linearGradient id="paint3_linear_1564_18042" x1="17.8811" y1="4.07035" x2="71.3975" y2="210.799" gradientUnits="userSpaceOnUse">
<stop stop-color="#00A86B"/>
<stop offset="1" stop-color="#003C1B"/>
</linearGradient>
<linearGradient id="paint4_linear_1564_18042" x1="17.8811" y1="4.07035" x2="71.3975" y2="210.799" gradientUnits="userSpaceOnUse">
<stop stop-color="#00A86B"/>
<stop offset="1" stop-color="#003C1B"/>
</linearGradient>
<linearGradient id="paint5_linear_1564_18042" x1="17.8811" y1="4.07035" x2="71.3975" y2="210.799" gradientUnits="userSpaceOnUse">
<stop stop-color="#00A86B"/>
<stop offset="1" stop-color="#003C1B"/>
</linearGradient>
<linearGradient id="paint6_linear_1564_18042" x1="17.8811" y1="4.07035" x2="71.3975" y2="210.799" gradientUnits="userSpaceOnUse">
<stop stop-color="#00A86B"/>
<stop offset="1" stop-color="#003C1B"/>
</linearGradient>
<linearGradient id="paint7_linear_1564_18042" x1="17.8811" y1="4.07035" x2="71.3975" y2="210.799" gradientUnits="userSpaceOnUse">
<stop stop-color="#00A86B"/>
<stop offset="1" stop-color="#003C1B"/>
</linearGradient>
<linearGradient id="paint8_linear_1564_18042" x1="17.8811" y1="4.07035" x2="71.3975" y2="210.799" gradientUnits="userSpaceOnUse">
<stop stop-color="#00A86B"/>
<stop offset="1" stop-color="#003C1B"/>
</linearGradient>
</defs>
</svg>
